<svg width="17" height="17" viewBox="0 0 17 17" fill="none" xmlns="http://www.w3.org/2000/svg">
<path fill-rule="evenodd" clip-rule="evenodd" d="M6.94531 1.64355C7.35953 1.64355 7.69531 1.97934 7.69531 2.39355V2.98543H9.36909V2.39355C9.36909 1.97934 9.70487 1.64355 10.1191 1.64355C10.5333 1.64355 10.8691 1.97934 10.8691 2.39355V2.98893C11.7448 3.02626 12.5059 3.36125 13.0541 3.95137C13.5695 4.5062 13.852 5.23764 13.9061 6.03906H14.5148C14.929 6.03906 15.2648 6.37485 15.2648 6.78906C15.2648 7.20328 14.929 7.53906 14.5148 7.53906H13.9158V9.20755H14.5148C14.929 9.20755 15.2648 9.54334 15.2648 9.95755C15.2648 10.3718 14.929 10.7076 14.5148 10.7076H13.9063C13.8527 11.5088 13.5698 12.2404 13.0537 12.7951C12.5055 13.3843 11.7447 13.7189 10.8691 13.7562V14.3551C10.8691 14.7694 10.5333 15.1051 10.1191 15.1051C9.70487 15.1051 9.36909 14.7694 9.36909 14.3551V13.7597H7.69531V14.3551C7.69531 14.7694 7.35953 15.1051 6.94531 15.1051C6.5311 15.1051 6.19531 14.7694 6.19531 14.3551V13.7564C5.31864 13.7198 4.55592 13.3851 4.00613 12.7959C3.48891 12.2416 3.20439 11.5101 3.15031 10.7082H2.54883C2.13461 10.7082 1.79883 10.3724 1.79883 9.95818C1.79883 9.54397 2.13461 9.20818 2.54883 9.20818H3.14079V7.53969H2.54883C2.13461 7.53969 1.79883 7.20391 1.79883 6.78969C1.79883 6.37548 2.13461 6.03969 2.54883 6.03969H3.15047C3.20506 5.23636 3.49065 4.50458 4.00776 3.95023C4.55766 3.36073 5.3201 3.02553 6.19531 2.9888V2.39355C6.19531 1.97934 6.5311 1.64355 6.94531 1.64355ZM6.94531 4.48702C6.92872 4.48702 6.91226 4.48649 6.89594 4.48543H6.35735C5.78608 4.48543 5.37574 4.68277 5.10462 4.97341C4.82814 5.2698 4.64079 5.72403 4.64079 6.32729V6.74022C4.64186 6.75657 4.6424 6.77307 4.6424 6.78969C4.6424 6.80631 4.64186 6.82281 4.64079 6.83917V9.90871C4.64186 9.92506 4.6424 9.94156 4.6424 9.95818C4.6424 9.97481 4.64186 9.9913 4.64079 10.0077V10.423C4.64079 11.0244 4.82723 11.4772 5.10285 11.7726C5.37301 12.0621 5.78314 12.2597 6.35735 12.2597H10.7038C11.2782 12.2597 11.6867 12.0622 11.9555 11.7733C12.23 11.4783 12.4158 11.0255 12.4158 10.423V6.32729C12.4158 5.722 12.2296 5.26781 11.9551 4.97227C11.6864 4.68298 11.278 4.48543 10.7038 4.48543H10.1685C10.1521 4.48649 10.1357 4.48702 10.1191 4.48702C10.1025 4.48702 10.086 4.48649 10.0697 4.48543H6.99468C6.97836 4.48649 6.9619 4.48702 6.94531 4.48702ZM9.18591 6.78957C9.39371 6.43125 9.27168 5.97232 8.91336 5.76453C8.55504 5.55673 8.09611 5.67876 7.88832 6.03708L6.75175 7.99696C6.6172 8.22898 6.61679 8.51518 6.75067 8.74758C6.88455 8.97999 7.13234 9.12321 7.40055 9.12321H8.35979L7.87625 9.95583C7.66823 10.314 7.78998 10.773 8.14817 10.981C8.50636 11.1891 8.96536 11.0673 9.17338 10.7091L10.3112 8.74986C10.4459 8.51785 10.4465 8.23155 10.3126 7.99903C10.1788 7.76652 9.93094 7.62321 9.66265 7.62321H8.70247L9.18591 6.78957Z" fill="url(#paint0_linear_2019_1027)"/>
<defs>
<linearGradient id="paint0_linear_2019_1027" x1="15.2648" y1="1.64355" x2="1.8032" y2="15.1095" gradientUnits="userSpaceOnUse">
<stop stop-color="#7EFFB4"/>
<stop offset="1" stop-color="#5C80FF"/>
</linearGradient>
</defs>
</svg>
