<svg width="142" height="34" viewBox="0 0 142 34" fill="none" xmlns="http://www.w3.org/2000/svg">
<path fill-rule="evenodd" clip-rule="evenodd" d="M33.35 31.8852H25.4746L23.0653 26.045H9.93971L7.74525 31.8852H0L11.8336 2.38452H20.3109L33.35 31.8852ZM16.1797 9.43564L11.8764 20.8976H20.9128L16.1797 9.43564ZM61.9563 2.38452H68.3256V31.8852H61.0094V13.4582L53.092 22.7152H51.973L44.0548 13.4582V31.8852H36.7394V2.38452H43.1071L52.5321 13.3283L61.9563 2.38452ZM86.8638 2.38452C97.5775 2.38452 103.086 9.08966 103.086 17.1779C103.086 25.656 97.7504 31.8852 86.0453 31.8852H73.9095V2.38452H86.8638ZM81.2265 26.4795H86.0017C93.3599 26.4795 95.5552 21.4604 95.5552 17.134C95.5552 12.0735 92.8452 7.79184 85.916 7.79184H81.2257V26.4795H81.2265Z" fill="white"/>
<path fill-rule="evenodd" clip-rule="evenodd" d="M132.649 9.27236H117.609L108.469 0.0414219L142 0V33.7458L132.649 24.3029V9.27236ZM117.609 24.5993L117.651 10.9657L108.133 20.5353V34H121.907L131.258 24.5993H117.609Z" fill="#2B9969"/>
</svg>
