<svg width="182" height="34" viewBox="0 0 182 34" fill="none" xmlns="http://www.w3.org/2000/svg">
<g clip-path="url(#clip0_2992_561)">
<path d="M111.192 6.33287V29.0127H117.596V6.33287H111.192ZM60.8076 6.29443V28.9935H67.2692V11.3686L72.3076 11.3878C73.9615 11.3878 75.1153 11.7914 75.9038 12.6371C76.923 13.7134 77.3268 15.4625 77.3268 18.6338V28.9935H83.5961V16.4619C83.5961 7.50531 77.8845 6.29443 72.3076 6.29443H60.8076ZM121.519 6.33287V29.0127H131.904C137.442 29.0127 139.25 28.0901 141.192 26.0336C142.577 24.5921 143.461 21.4015 143.461 17.9227C143.461 14.7321 142.711 11.8875 141.385 10.1193C139.038 6.94792 135.615 6.33287 130.5 6.33287H121.519ZM127.865 11.2532H130.615C134.615 11.2532 137.192 13.0407 137.192 17.692C137.192 22.3433 134.615 24.15 130.615 24.15H127.865V11.2532ZM101.961 6.33287L96.6153 24.3038L91.4999 6.33287H84.5768L91.8845 29.0127H101.115L108.5 6.33287H101.961ZM146.461 29.0127H152.865V6.33287H146.461V29.0127ZM164.423 6.33287L155.481 28.9935H161.788L163.211 24.9765H173.788L175.135 28.9743H182L172.981 6.33287H164.423ZM168.577 10.4652L172.461 21.0748H164.577L168.577 10.4652Z" fill="white"/>
<path d="M19.4808 10.0999V6.98621C19.7885 6.96699 20.0962 6.94777 20.4038 6.94777C28.9423 6.67868 34.5385 14.2899 34.5385 14.2899C34.5385 14.2899 28.5 22.6699 22.0192 22.6699C21.1538 22.6699 20.3077 22.5354 19.5 22.2663V12.8099C22.8269 13.2136 23.5 14.6743 25.4808 17.9994L29.9231 14.2707C29.9231 14.2707 26.6731 10.023 21.2115 10.023C20.6346 10.0038 20.0577 10.0422 19.4808 10.0999ZM19.4808 -0.202148V4.44914L20.4038 4.39148C32.2692 3.98786 40.0192 14.1169 40.0192 14.1169C40.0192 14.1169 31.1346 24.9187 21.8846 24.9187C21.0769 24.9187 20.2885 24.8418 19.5 24.7072V27.5903C20.1538 27.6671 20.8269 27.7248 21.4808 27.7248C30.0962 27.7248 36.3269 23.3234 42.3654 18.1339C43.3654 18.9412 47.4615 20.8824 48.3077 21.7281C42.5769 26.5332 29.2115 30.3964 21.6346 30.3964C20.9038 30.3964 20.2115 30.358 19.5192 30.2811V34.3366H52.25V-0.202148H19.4808ZM19.4808 22.2663V24.7265C11.5192 23.3042 9.30769 15.0203 9.30769 15.0203C9.30769 15.0203 13.1346 10.7918 19.4808 10.0999V12.7907H19.4615C16.1346 12.3871 13.5192 15.5008 13.5192 15.5008C13.5192 15.5008 15 20.7479 19.4808 22.2663ZM5.34615 14.6743C5.34615 14.6743 10.0577 7.71658 19.5 6.98621V4.44914C9.03846 5.29483 0 14.1361 0 14.1361C0 14.1361 5.11539 28.9357 19.4808 30.2811V27.5903C8.94231 26.2833 5.34615 14.6743 5.34615 14.6743Z" fill="#76B900"/>
</g>
<defs>
<clipPath id="clip0_2992_561">
<rect width="182" height="34" fill="white"/>
</clipPath>
</defs>
</svg>
