<svg width="24" height="24" viewBox="0 0 24 24" fill="none" xmlns="http://www.w3.org/2000/svg">
<path fill-rule="evenodd" clip-rule="evenodd" d="M13.0006 2.04936V3.75073C13.0006 4.30302 12.5529 4.75073 12.0006 4.75073C11.4483 4.75073 11.0006 4.30302 11.0006 3.75073V2.04936C8.98904 2.24902 7.15294 3.04458 5.67127 4.25705L6.87434 5.46012C7.26486 5.85065 7.26486 6.48381 6.87434 6.87434C6.48381 7.26486 5.85065 7.26486 5.46012 6.87434L4.25705 5.67126C3.04458 7.15293 2.24902 8.98902 2.04936 11.0005H4.02544C4.57772 11.0005 5.02544 11.4482 5.02544 12.0005C5.02544 12.5528 4.57772 13.0005 4.02544 13.0005H2.04938C2.21026 14.6208 2.75791 16.1274 3.59872 17.4266C5.54802 15.5263 8.13053 14.2804 11 14.0439V9.33066C11 8.77838 11.4477 8.33066 12 8.33066C12.5523 8.33066 13 8.77838 13 9.33066V14.0439C15.869 14.2807 18.4525 15.5266 20.4021 17.427C21.2431 16.1277 21.7908 14.621 21.9517 13.0005H20.251C19.6987 13.0005 19.251 12.5528 19.251 12.0005C19.251 11.4482 19.6987 11.0005 20.251 11.0005H21.9517C21.7521 8.9893 20.9567 7.15344 19.7446 5.67189L18.5421 6.87433C18.1516 7.26486 17.5184 7.26486 17.1279 6.87434C16.7374 6.48382 16.7374 5.85065 17.1279 5.46013L18.3305 4.25756C16.8487 3.04481 15.0124 2.24905 13.0006 2.04936ZM12.0006 22.0011C9.20113 22.0011 6.6705 20.8508 4.85529 18.9973C6.68384 17.1443 9.20804 16.0028 11.9997 16.0028C14.7908 16.0028 17.3166 17.1446 19.1454 18.9976C17.3303 20.8509 14.7998 22.0011 12.0006 22.0011ZM24.001 12.0499C24.0018 12.0336 24.0022 12.0171 24.0022 12.0005C24.0022 11.984 24.0018 11.9675 24.001 11.9511C23.9744 5.34572 18.6122 0 12.0006 0C5.37239 0 0 5.37238 0 12.0005C0 14.8567 0.997948 17.48 2.66428 19.5407C2.7088 19.6107 2.76176 19.6747 2.82174 19.7314C5.02301 22.3423 8.31794 24.0011 12.0006 24.0011C15.6814 24.0011 18.975 22.3438 21.1762 19.7351C21.2392 19.6762 21.2945 19.6094 21.3405 19.5361C22.995 17.488 23.9896 14.8848 24.001 12.0499Z" fill="url(#paint0_linear_3038_226)"/>
<defs>
<linearGradient id="paint0_linear_3038_226" x1="24.0022" y1="-1.43057e-06" x2="0.00113633" y2="24.0022" gradientUnits="userSpaceOnUse">
<stop stop-color="#7EFFB4"/>
<stop offset="1" stop-color="#5C80FF"/>
</linearGradient>
</defs>
</svg>
