<svg width="103" height="65" viewBox="0 0 103 65" fill="none" xmlns="http://www.w3.org/2000/svg">
<g clip-path="url(#clip0_5144_2577)">
<mask id="mask0_5144_2577" style="mask-type:luminance" maskUnits="userSpaceOnUse" x="0" y="0" width="420" height="65">
<path d="M420 0H0V64.848H420V0Z" fill="white"/>
</mask>
<g mask="url(#mask0_5144_2577)">
<path d="M72.3121 33.2524L74.9161 31.7764L76.4881 32.0284L72.2041 34.4644L72.3121 33.2524Z" fill="white"/>
<path d="M62.8564 28.5482C54.9964 24.6722 42.4684 20.5442 26.1124 21.9842L25.3564 21.0602L26.0284 21.0002C28.2724 20.7962 30.5284 20.7002 32.7484 20.7002C46.3564 20.7002 56.8804 24.4801 63.3124 27.6601C68.1004 30.0361 71.1484 32.3041 72.3244 33.2641L72.2164 34.4761C72.2164 34.4761 68.9884 31.5961 62.8684 28.5601L62.8564 28.5482Z" fill="white"/>
<path d="M25.3443 21.0479L26.1003 21.9719C25.1043 25.3079 24.4563 28.8839 24.1083 32.6639C23.6163 38.2799 23.8083 44.3039 24.9003 50.4719L23.7963 49.9559C22.8363 44.1719 22.5963 38.3399 23.1123 32.5799C23.4723 28.6439 24.1563 24.9839 25.1403 21.6959L25.3323 21.0479H25.3443Z" fill="white"/>
<path d="M25.4641 6.96024C28.2001 7.26024 30.8401 7.65624 33.3721 8.14824C49.9801 11.4842 62.0161 19.1882 69.0721 24.9602C73.9441 28.9922 76.4761 32.0162 76.4761 32.0162L74.9161 31.7642C73.8241 30.5882 71.6281 28.3682 68.4361 25.7282C61.3801 19.9682 49.5481 12.4082 33.1681 9.12024C30.8041 8.65224 28.3321 8.28024 25.7881 7.99224L25.4521 6.94824L25.4641 6.96024Z" fill="white"/>
<path d="M74.9165 31.7759L72.3125 33.2519C71.1245 32.3039 68.0885 30.0239 63.3005 27.6479C56.8685 24.4679 46.3445 20.6879 32.7365 20.6879C30.5285 20.6879 28.2605 20.7839 26.0165 20.9879L25.3445 21.0479L25.1525 21.6959C24.1685 24.9839 23.4965 28.6439 23.1245 32.5799C22.6085 38.3399 22.8485 44.1719 23.8085 49.9559L1.02051 63.1079C1.32051 49.8479 5.05251 36.7919 11.8565 25.2719C15.6965 18.8279 20.3885 13.0079 25.8125 8.00391C28.3565 8.29191 30.8285 8.67591 33.1925 9.13191C49.5605 12.4199 61.4045 19.9679 68.4605 25.7399C71.6525 28.3799 73.8485 30.5999 74.9405 31.7759H74.9165Z" fill="url(#paint0_radial_5144_2577)"/>
<path d="M32.736 20.6879C46.344 20.6879 56.868 24.4679 63.3 27.6479C68.088 30.0239 71.136 32.2919 72.312 33.2519L74.916 31.7759C73.824 30.5999 71.628 28.3799 68.436 25.7399C61.38 19.9799 49.548 12.4199 33.168 9.13191C30.804 8.66391 28.332 8.29191 25.788 8.00391L25.332 21.0479L26.004 20.9879C28.248 20.7839 30.504 20.6879 32.724 20.6879H32.736Z" fill="url(#paint1_radial_5144_2577)"/>
<path d="M11.844 25.2719C15.684 18.8279 20.376 13.0079 25.8 8.00396L25.464 6.95996C19.692 12.2279 14.868 18.2519 10.992 24.7679C3.828 36.8999 0 50.7719 0 64.8479L1.02 63.1079C1.32 49.8479 5.052 36.7919 11.856 25.2719H11.844Z" fill="white"/>
<path d="M23.82 49.9561L1.02 63.1081L0 64.8481L24.912 50.4721L23.82 49.9561Z" fill="white"/>
<path d="M29.9638 31.5958L27.3598 33.0718L25.7998 32.8198L30.0718 30.3838L29.9638 31.5958Z" fill="white"/>
<path d="M39.4201 36.3001C47.2801 40.1761 59.8081 44.3042 76.1641 42.8642L76.9201 43.7882L76.2481 43.8482C74.0041 44.0522 71.7481 44.1482 69.5281 44.1482C55.9201 44.1482 45.3962 40.3681 38.9642 37.1881C34.1762 34.8121 31.1281 32.5441 29.9521 31.5841L30.0601 30.3721C30.0601 30.3721 33.2881 33.2521 39.4081 36.2881L39.4201 36.3001Z" fill="white"/>
<path d="M76.9318 43.8L76.1758 42.876C77.1718 39.54 77.8198 35.964 78.1678 32.184C78.6598 26.568 78.4678 20.544 77.3758 14.376L78.4798 14.892C79.4398 20.676 79.6798 26.508 79.1638 32.268C78.8038 36.204 78.1198 39.864 77.1358 43.152L76.9438 43.8H76.9318Z" fill="white"/>
<path d="M76.8235 57.888C74.0875 57.588 71.4475 57.192 68.9155 56.7C52.3075 53.364 40.2715 45.66 33.2155 39.888C28.3435 35.856 25.8115 32.832 25.8115 32.832L27.3715 33.084C28.4635 34.26 30.6595 36.48 33.8515 39.12C40.9075 44.88 52.7395 52.44 69.1195 55.728C71.4835 56.196 73.9555 56.568 76.4995 56.856L76.8355 57.9L76.8235 57.888Z" fill="white"/>
<path d="M27.3597 33.0722L29.9637 31.5962C31.1517 32.5442 34.1877 34.8242 38.9757 37.2002C45.4077 40.3802 55.9317 44.1602 69.5397 44.1602C71.7477 44.1602 74.0157 44.0642 76.2597 43.8602L76.9317 43.8002L77.1237 43.1522C78.1077 39.8642 78.7797 36.2042 79.1517 32.2682C79.6677 26.5082 79.4277 20.6762 78.4677 14.8922L101.268 1.74023C100.968 15.0002 97.2357 28.0562 90.4317 39.5762C86.5917 46.0202 81.8997 51.8402 76.4757 56.8442C73.9317 56.5562 71.4597 56.1722 69.0957 55.7162C52.7277 52.4282 40.8837 44.8802 33.8277 39.1082C30.6357 36.4682 28.4397 34.2482 27.3477 33.0722H27.3597Z" fill="url(#paint2_radial_5144_2577)"/>
<path d="M69.5404 44.1597C55.9324 44.1597 45.4084 40.3797 38.9764 37.1997C34.1884 34.8237 31.1404 32.5557 29.9644 31.5957L27.3604 33.0717C28.4524 34.2477 30.6484 36.4677 33.8404 39.1077C40.8964 44.8677 52.7284 52.4277 69.1084 55.7157C71.4724 56.1837 73.9444 56.5557 76.4883 56.8437L76.9444 43.7997L76.2723 43.8597C74.0283 44.0637 71.7724 44.1597 69.5524 44.1597H69.5404Z" fill="url(#paint3_radial_5144_2577)"/>
<path d="M90.4326 39.576C86.5926 46.02 81.9006 51.84 76.4766 56.844L76.8126 57.888C82.5846 52.62 87.4086 46.596 91.2846 40.08C98.4486 27.948 102.276 14.076 102.276 0L101.256 1.74C100.956 15 97.2246 28.056 90.4206 39.576H90.4326Z" fill="white"/>
<path d="M78.4683 14.892L101.268 1.74L102.288 0L77.3643 14.376L78.4683 14.892Z" fill="white"/>
</g>
</g>
<defs>
<radialGradient id="paint0_radial_5144_2577" cx="0" cy="0" r="1" gradientUnits="userSpaceOnUse" gradientTransform="translate(25.8125 7.95591) scale(60.696 60.696)">
<stop stop-color="white"/>
<stop offset="1" stop-color="white"/>
</radialGradient>
<radialGradient id="paint1_radial_5144_2577" cx="0" cy="0" r="1" gradientUnits="userSpaceOnUse" gradientTransform="translate(33.348 8.87991) scale(42.012 42.012)">
<stop stop-color="white"/>
<stop offset="1" stop-color="white"/>
</radialGradient>
<radialGradient id="paint2_radial_5144_2577" cx="0" cy="0" r="1" gradientUnits="userSpaceOnUse" gradientTransform="translate(76.4637 56.8922) rotate(-180) scale(60.696 60.696)">
<stop stop-color="white"/>
<stop offset="1" stop-color="white"/>
</radialGradient>
<radialGradient id="paint3_radial_5144_2577" cx="0" cy="0" r="1" gradientUnits="userSpaceOnUse" gradientTransform="translate(68.9404 55.9557) rotate(180) scale(42.012 42.012)">
<stop stop-color="white"/>
<stop offset="1" stop-color="white"/>
</radialGradient>
<clipPath id="clip0_5144_2577">
<rect width="103" height="65" fill="white"/>
</clipPath>
</defs>
</svg>
