<svg width="420" height="65" viewBox="0 0 420 65" fill="none" xmlns="http://www.w3.org/2000/svg">
<g clip-path="url(#clip0_5142_2442)">
<mask id="mask0_5142_2442" style="mask-type:luminance" maskUnits="userSpaceOnUse" x="0" y="0" width="420" height="65">
<path d="M420 0H0V64.848H420V0Z" fill="white"/>
</mask>
<g mask="url(#mask0_5142_2442)">
<path d="M162.528 58.6442H155.856L130.5 19.8242V58.6442H123.828V8.28027H130.5L155.928 47.2682V8.28027H162.54V58.6562L162.528 58.6442Z" fill="white"/>
<path d="M171.624 39.5875C171.624 35.9155 172.344 32.6275 173.784 29.6875C175.224 26.7595 177.228 24.5035 179.808 22.9075C182.376 21.3115 185.316 20.5195 188.616 20.5195C193.716 20.5195 197.832 22.2835 200.988 25.8115C204.132 29.3395 205.716 34.0315 205.716 39.8875V40.3315C205.716 43.9795 205.02 47.2435 203.628 50.1355C202.236 53.0275 200.232 55.2835 197.64 56.9035C195.048 58.5235 192.06 59.3275 188.7 59.3275C183.624 59.3275 179.52 57.5635 176.364 54.0355C173.22 50.5075 171.636 45.8395 171.636 40.0195V39.5755L171.624 39.5875ZM178.068 40.3435C178.068 44.4955 179.028 47.8315 180.96 50.3395C182.88 52.8595 185.46 54.1075 188.688 54.1075C191.916 54.1075 194.52 52.8355 196.44 50.2795C198.36 47.7355 199.308 44.1595 199.308 39.5755C199.308 35.4715 198.336 32.1475 196.38 29.5915C194.436 27.0475 191.844 25.7635 188.616 25.7635C185.388 25.7635 182.904 27.0235 180.972 29.5315C179.04 32.0515 178.068 35.6395 178.068 40.3315V40.3435Z" fill="white"/>
<path d="M212.172 39.6239C212.172 33.8759 213.528 29.2679 216.252 25.7639C218.976 22.2719 222.54 20.5199 226.944 20.5199C231.348 20.5199 234.792 22.0199 237.36 25.0199V5.50781H243.756V58.6439H237.876L237.564 54.6359C235.008 57.7679 231.444 59.3399 226.872 59.3399C222.3 59.3399 219 57.5639 216.264 54.0119C213.528 50.4599 212.16 45.8279 212.16 40.1039V39.6239H212.172ZM218.58 40.3439C218.58 44.5919 219.456 47.9039 221.208 50.3039C222.96 52.7039 225.384 53.9039 228.468 53.9039C232.524 53.9039 235.488 52.0799 237.36 48.4319V31.2359C235.44 27.7079 232.5 25.9439 228.54 25.9439C225.408 25.9439 222.96 27.1559 221.208 29.5799C219.456 32.0039 218.58 35.5919 218.58 40.3439Z" fill="white"/>
<path d="M269.232 59.3395C264.156 59.3395 260.028 57.6715 256.848 54.3355C253.668 50.9995 252.072 46.5475 252.072 40.9675V39.7915C252.072 36.0835 252.78 32.7595 254.196 29.8435C255.612 26.9275 257.604 24.6475 260.148 22.9915C262.692 21.3355 265.464 20.5195 268.428 20.5195C273.3 20.5195 277.08 22.1275 279.78 25.3315C282.48 28.5355 283.824 33.1315 283.824 39.0955V41.7595H258.468C258.564 45.4555 259.644 48.4315 261.708 50.6995C263.772 52.9675 266.4 54.1075 269.58 54.1075C271.836 54.1075 273.756 53.6515 275.328 52.7275C276.9 51.8035 278.268 50.5795 279.444 49.0555L283.356 52.1035C280.224 56.9275 275.52 59.3395 269.244 59.3395H269.232ZM268.428 25.7755C265.848 25.7755 263.676 26.7115 261.924 28.5955C260.172 30.4795 259.092 33.1075 258.672 36.5035H277.428V36.0235C277.248 32.7715 276.372 30.2515 274.8 28.4635C273.228 26.6755 271.104 25.7875 268.44 25.7875L268.428 25.7755Z" fill="white"/>
<path d="M329.424 52.044C327.72 54.492 325.332 56.316 322.284 57.528C319.236 58.74 315.672 59.34 311.616 59.34C307.56 59.34 303.864 58.38 300.684 56.448C297.504 54.516 295.044 51.78 293.292 48.228C291.54 44.676 290.652 40.56 290.616 35.88V31.488C290.616 23.904 292.392 18.024 295.932 13.848C299.472 9.67198 304.452 7.58398 310.86 7.58398C316.116 7.58398 320.352 8.92798 323.556 11.616C326.76 14.304 328.728 18.12 329.436 23.052H322.788C321.54 16.368 317.58 13.02 310.884 13.02C306.432 13.02 303.06 14.58 300.768 17.712C298.476 20.844 297.312 25.368 297.288 31.308V35.424C297.288 41.076 298.584 45.576 301.164 48.912C303.744 52.248 307.236 53.916 311.652 53.916C314.148 53.916 316.32 53.64 318.192 53.088C320.064 52.536 321.6 51.6 322.824 50.292V39H311.16V33.564H329.424V52.044Z" fill="url(#paint0_linear_5142_2442)"/>
<path d="M347.136 38.9282V58.6442H340.488V8.28027H359.064C364.572 8.28027 368.892 9.68427 372.024 12.5042C375.144 15.3122 376.716 19.0442 376.716 23.6762C376.716 28.5602 375.192 32.3282 372.132 34.9682C369.072 37.6082 364.704 38.9282 359.004 38.9282H347.136ZM347.136 33.4922H359.076C362.628 33.4922 365.352 32.6522 367.236 30.9842C369.12 29.3162 370.068 26.8922 370.068 23.7242C370.068 20.5562 369.12 18.3122 367.236 16.5122C365.352 14.7122 362.748 13.7762 359.448 13.7042H347.136V33.4922Z" fill="url(#paint1_linear_5142_2442)"/>
<path d="M420 13.7046H403.812V58.6446H397.2V13.7046H381.048V8.26855H420V13.7046Z" fill="url(#paint2_linear_5142_2442)"/>
<path d="M72.3121 33.2524L74.9161 31.7764L76.4881 32.0284L72.2041 34.4644L72.3121 33.2524Z" fill="white"/>
<path d="M62.856 28.5482C54.996 24.6722 42.468 20.5442 26.112 21.9842L25.356 21.0602L26.028 21.0002C28.272 20.7962 30.528 20.7002 32.748 20.7002C46.356 20.7002 56.88 24.4801 63.312 27.6601C68.1 30.0361 71.148 32.3041 72.324 33.2641L72.216 34.4762C72.216 34.4762 68.988 31.5961 62.868 28.5601L62.856 28.5482Z" fill="white"/>
<path d="M25.3438 21.0479L26.0998 21.9719C25.1038 25.3079 24.4558 28.8839 24.1078 32.6639C23.6158 38.2799 23.8078 44.3039 24.8998 50.4719L23.7958 49.9559C22.8358 44.1719 22.5958 38.3399 23.1118 32.5799C23.4718 28.6439 24.1558 24.9839 25.1398 21.6959L25.3318 21.0479H25.3438Z" fill="white"/>
<path d="M25.4641 6.96024C28.2001 7.26024 30.8401 7.65624 33.3721 8.14824C49.9801 11.4842 62.0161 19.1882 69.0721 24.9602C73.9441 28.9922 76.4761 32.0162 76.4761 32.0162L74.9161 31.7642C73.8241 30.5882 71.6281 28.3682 68.4361 25.7282C61.3801 19.9682 49.5481 12.4082 33.1681 9.12024C30.8041 8.65224 28.3321 8.28024 25.7881 7.99224L25.4521 6.94824L25.4641 6.96024Z" fill="white"/>
<path d="M74.916 31.7759L72.312 33.2519C71.124 32.3039 68.088 30.0239 63.3 27.6479C56.868 24.4679 46.344 20.6879 32.736 20.6879C30.528 20.6879 28.26 20.7839 26.016 20.9879L25.344 21.0479L25.152 21.6959C24.168 24.9839 23.496 28.6439 23.124 32.5799C22.608 38.3399 22.848 44.1719 23.808 49.9559L1.02002 63.1079C1.32002 49.8479 5.05202 36.7919 11.856 25.2719C15.696 18.8279 20.388 13.0079 25.812 8.00391C28.356 8.29191 30.828 8.67591 33.192 9.13191C49.56 12.4199 61.404 19.9679 68.46 25.7399C71.652 28.3799 73.848 30.5999 74.94 31.7759H74.916Z" fill="url(#paint3_radial_5142_2442)"/>
<path d="M32.736 20.6879C46.344 20.6879 56.868 24.4679 63.3 27.6479C68.088 30.0239 71.136 32.2919 72.312 33.2519L74.916 31.7759C73.824 30.5999 71.628 28.3799 68.436 25.7399C61.38 19.9799 49.548 12.4199 33.168 9.13191C30.804 8.66391 28.332 8.29191 25.788 8.00391L25.332 21.0479L26.004 20.9879C28.248 20.7839 30.504 20.6879 32.724 20.6879H32.736Z" fill="url(#paint4_radial_5142_2442)"/>
<path d="M11.844 25.2719C15.684 18.8279 20.376 13.0079 25.8 8.00396L25.464 6.95996C19.692 12.2279 14.868 18.2519 10.992 24.7679C3.828 36.8999 0 50.7719 0 64.8479L1.02 63.1079C1.32 49.8479 5.052 36.7919 11.856 25.2719H11.844Z" fill="white"/>
<path d="M23.82 49.9561L1.02 63.1081L0 64.8481L24.912 50.4721L23.82 49.9561Z" fill="white"/>
<path d="M29.9638 31.5958L27.3598 33.0718L25.7998 32.8198L30.0718 30.3838L29.9638 31.5958Z" fill="white"/>
<path d="M39.4201 36.3001C47.2801 40.1761 59.8081 44.3042 76.1641 42.8642L76.9201 43.7882L76.2481 43.8482C74.0041 44.0522 71.7481 44.1482 69.5281 44.1482C55.9201 44.1482 45.3962 40.3681 38.9642 37.1881C34.1762 34.8121 31.1281 32.5441 29.9521 31.5841L30.0601 30.3721C30.0601 30.3721 33.2881 33.2521 39.4081 36.2881L39.4201 36.3001Z" fill="white"/>
<path d="M76.9318 43.8L76.1758 42.876C77.1718 39.54 77.8198 35.964 78.1678 32.184C78.6598 26.568 78.4678 20.544 77.3758 14.376L78.4798 14.892C79.4398 20.676 79.6798 26.508 79.1638 32.268C78.8038 36.204 78.1198 39.864 77.1358 43.152L76.9438 43.8H76.9318Z" fill="white"/>
<path d="M76.824 57.888C74.088 57.588 71.448 57.192 68.916 56.7C52.308 53.364 40.272 45.66 33.216 39.888C28.344 35.856 25.812 32.832 25.812 32.832L27.372 33.084C28.464 34.26 30.66 36.48 33.852 39.12C40.908 44.88 52.74 52.44 69.12 55.728C71.484 56.196 73.956 56.568 76.5 56.856L76.836 57.9L76.824 57.888Z" fill="white"/>
<path d="M27.3601 33.0722L29.9641 31.5962C31.1521 32.5442 34.1881 34.8242 38.9761 37.2002C45.4081 40.3802 55.9321 44.1602 69.5401 44.1602C71.7481 44.1602 74.0161 44.0642 76.2601 43.8602L76.9321 43.8002L77.1241 43.1522C78.1081 39.8642 78.7801 36.2042 79.1521 32.2682C79.6681 26.5082 79.4281 20.6762 78.4681 14.8922L101.268 1.74023C100.968 15.0002 97.2361 28.0562 90.4321 39.5762C86.5921 46.0202 81.9001 51.8402 76.4761 56.8442C73.9321 56.5562 71.4601 56.1722 69.0961 55.7162C52.7281 52.4282 40.8841 44.8802 33.8281 39.1082C30.6361 36.4682 28.4401 34.2482 27.3481 33.0722H27.3601Z" fill="url(#paint5_radial_5142_2442)"/>
<path d="M69.5399 44.1597C55.9319 44.1597 45.4079 40.3797 38.9759 37.1997C34.1879 34.8237 31.1399 32.5557 29.9639 31.5957L27.3599 33.0717C28.4519 34.2477 30.6479 36.4677 33.8399 39.1077C40.8959 44.8677 52.7279 52.4277 69.1079 55.7157C71.4719 56.1837 73.9439 56.5557 76.4879 56.8437L76.9439 43.7997L76.2719 43.8597C74.0279 44.0637 71.7719 44.1597 69.5519 44.1597H69.5399Z" fill="url(#paint6_radial_5142_2442)"/>
<path d="M90.4321 39.576C86.5921 46.02 81.9001 51.84 76.4761 56.844L76.8121 57.888C82.5841 52.62 87.4081 46.596 91.2841 40.08C98.4481 27.948 102.276 14.076 102.276 0L101.256 1.74C100.956 15 97.2241 28.056 90.4201 39.576H90.4321Z" fill="white"/>
<path d="M78.4678 14.892L101.268 1.74L102.288 0L77.3638 14.376L78.4678 14.892Z" fill="white"/>
</g>
</g>
<defs>
<linearGradient id="paint0_linear_5142_2442" x1="310.02" y1="8.51998" x2="310.02" y2="57.564" gradientUnits="userSpaceOnUse">
<stop stop-color="white"/>
<stop offset="1" stop-color="#B3B3B3"/>
</linearGradient>
<linearGradient id="paint1_linear_5142_2442" x1="358.608" y1="8.52027" x2="358.608" y2="57.5642" gradientUnits="userSpaceOnUse">
<stop stop-color="white"/>
<stop offset="1" stop-color="#B3B3B3"/>
</linearGradient>
<linearGradient id="paint2_linear_5142_2442" x1="400.524" y1="8.52055" x2="400.524" y2="57.5646" gradientUnits="userSpaceOnUse">
<stop stop-color="white"/>
<stop offset="1" stop-color="#B3B3B3"/>
</linearGradient>
<radialGradient id="paint3_radial_5142_2442" cx="0" cy="0" r="1" gradientUnits="userSpaceOnUse" gradientTransform="translate(25.812 7.95591) scale(60.696 60.696)">
<stop stop-color="white"/>
<stop offset="1" stop-color="#B3B3B3"/>
</radialGradient>
<radialGradient id="paint4_radial_5142_2442" cx="0" cy="0" r="1" gradientUnits="userSpaceOnUse" gradientTransform="translate(33.348 8.87991) scale(42.012 42.012)">
<stop stop-color="white"/>
<stop offset="1" stop-color="#B3B3B3"/>
</radialGradient>
<radialGradient id="paint5_radial_5142_2442" cx="0" cy="0" r="1" gradientUnits="userSpaceOnUse" gradientTransform="translate(76.4641 56.8922) rotate(-180) scale(60.696 60.696)">
<stop stop-color="white"/>
<stop offset="1" stop-color="#B3B3B3"/>
</radialGradient>
<radialGradient id="paint6_radial_5142_2442" cx="0" cy="0" r="1" gradientUnits="userSpaceOnUse" gradientTransform="translate(68.9399 55.9557) rotate(180) scale(42.012 42.012)">
<stop stop-color="white"/>
<stop offset="1" stop-color="#B3B3B3"/>
</radialGradient>
<clipPath id="clip0_5142_2442">
<rect width="420" height="65" fill="white"/>
</clipPath>
</defs>
</svg>
