<?xml version="1.0" encoding="UTF-8"?>
<svg id="Warstwa_1" xmlns="http://www.w3.org/2000/svg" version="1.1" viewBox="0 0 420 65">
  <!-- Generator: Adobe Illustrator 29.0.1, SVG Export Plug-In . SVG Version: 2.1.0 Build 192)  -->
  <defs>
    <style>
      .st0 {
        fill: #fff;
      }
    </style>
  </defs>
  <g>
    <path class="st0" d="M156,8v49h-7.9l-23.1-33.3h-.4v33.3h-8.9V8h7.9l23,33.4h.4V8h8.8Z"/>
    <path class="st0" d="M181.3,57.7c-3.6,0-6.7-.8-9.3-2.4s-4.7-3.8-6.1-6.6c-1.4-2.8-2.2-6.2-2.2-9.9s.7-7.1,2.2-10c1.4-2.9,3.5-5.1,6.1-6.6s5.7-2.4,9.3-2.4,6.7.8,9.3,2.4,4.7,3.8,6.1,6.6c1.4,2.9,2.2,6.2,2.2,10s-.7,7.1-2.2,9.9c-1.4,2.8-3.5,5-6.1,6.6s-5.7,2.4-9.3,2.4ZM181.4,50.7c1.9,0,3.6-.5,4.9-1.6,1.3-1.1,2.3-2.5,2.9-4.3.6-1.8,1-3.8,1-6.1s-.3-4.3-1-6.1c-.6-1.8-1.6-3.3-2.9-4.4-1.3-1.1-2.9-1.6-4.9-1.6s-3.6.5-5,1.6c-1.3,1.1-2.3,2.5-2.9,4.4-.6,1.8-1,3.9-1,6.1s.3,4.3,1,6.1c.6,1.8,1.6,3.3,2.9,4.3,1.3,1.1,3,1.6,5,1.6Z"/>
    <path class="st0" d="M219.9,57.6c-2.9,0-5.5-.7-7.7-2.2-2.3-1.5-4.1-3.6-5.4-6.5-1.3-2.8-2-6.2-2-10.3s.7-7.5,2-10.3c1.3-2.8,3.2-4.9,5.5-6.4,2.3-1.4,4.9-2.2,7.7-2.2s3.9.4,5.3,1.1,2.5,1.6,3.3,2.6c.8,1,1.4,2,1.9,2.9h.4V8h8.7v49h-8.5v-5.8h-.5c-.4.9-1.1,1.8-1.9,2.8-.8,1-2,1.8-3.3,2.5-1.4.7-3.1,1.1-5.2,1.1ZM222.3,50.5c1.8,0,3.4-.5,4.7-1.5,1.3-1,2.3-2.4,2.9-4.2.7-1.8,1-3.9,1-6.2s-.3-4.4-1-6.2-1.6-3.1-2.9-4.1c-1.3-1-2.9-1.5-4.7-1.5s-3.5.5-4.8,1.5c-1.3,1-2.3,2.4-2.9,4.2-.7,1.8-1,3.8-1,6.1s.3,4.3,1,6.1c.7,1.8,1.6,3.2,2.9,4.2s2.9,1.5,4.8,1.5Z"/>
    <path class="st0" d="M264.9,57.7c-3.7,0-6.9-.8-9.5-2.3-2.7-1.5-4.7-3.7-6.2-6.6-1.4-2.8-2.2-6.2-2.2-10s.7-7.1,2.2-10c1.4-2.9,3.5-5.1,6.1-6.7,2.6-1.6,5.7-2.4,9.2-2.4s4.4.4,6.4,1.1,3.8,1.8,5.4,3.4,2.8,3.4,3.7,5.8c.9,2.3,1.3,5.1,1.3,8.3v2.7h-30.1v-5.8h21.8c0-1.7-.4-3.1-1.1-4.4-.7-1.3-1.7-2.3-2.9-3.1-1.3-.7-2.7-1.1-4.4-1.1s-3.3.4-4.7,1.3-2.4,2-3.1,3.3c-.7,1.4-1.1,2.9-1.1,4.5v5.1c0,2.1.4,4,1.2,5.5.8,1.5,1.9,2.7,3.3,3.5,1.4.8,3,1.2,4.9,1.2s2.4-.2,3.4-.5,1.9-.9,2.7-1.6c.7-.7,1.3-1.6,1.7-2.6l8.1.9c-.5,2.1-1.5,4-2.9,5.6-1.4,1.6-3.2,2.8-5.5,3.7-2.2.9-4.7,1.3-7.6,1.3Z"/>
    <path class="st0" d="M321.7,23.6c-.4-1.3-.9-2.5-1.6-3.5-.7-1-1.5-1.9-2.5-2.6s-2.1-1.3-3.3-1.7-2.6-.6-4.1-.6c-2.6,0-5,.7-7,2-2.1,1.3-3.7,3.3-4.8,5.8-1.2,2.6-1.8,5.7-1.8,9.3s.6,6.8,1.7,9.4c1.2,2.6,2.8,4.5,4.9,5.8,2.1,1.3,4.5,2,7.2,2s4.6-.5,6.5-1.4c1.8-1,3.2-2.3,4.2-4.1,1-1.8,1.5-3.8,1.5-6.2l2,.3h-13.3v-6.9h19.9v5.9c0,4.2-.9,7.8-2.7,10.9-1.8,3.1-4.2,5.4-7.4,7.1-3.1,1.6-6.7,2.5-10.8,2.5s-8.5-1-11.9-3c-3.4-2-6.1-4.9-8-8.7-1.9-3.8-2.9-8.2-2.9-13.4s.6-7.5,1.7-10.6c1.1-3.1,2.7-5.7,4.7-7.9,2-2.2,4.4-3.8,7.1-5,2.7-1.1,5.7-1.7,8.9-1.7s5.2.4,7.6,1.2,4.4,1.9,6.3,3.4c1.8,1.5,3.3,3.2,4.5,5.2s2,4.2,2.3,6.6h-9Z"/>
    <path class="st0" d="M339.8,57V8h18.4c3.8,0,6.9.7,9.5,2.1,2.6,1.4,4.5,3.3,5.8,5.8,1.3,2.4,2,5.2,2,8.3s-.7,5.9-2,8.4c-1.3,2.4-3.3,4.4-5.9,5.8s-5.8,2.1-9.5,2.1h-12.2v-7.3h11c2.2,0,4-.4,5.4-1.1s2.4-1.8,3.1-3.2c.7-1.3,1-2.9,1-4.6s-.3-3.3-1-4.6c-.7-1.3-1.7-2.4-3.1-3.1-1.4-.7-3.2-1.1-5.4-1.1h-8.1v41.5h-8.9Z"/>
    <path class="st0" d="M380.9,15.4v-7.4h39.1v7.4h-15.1v41.5h-8.8V15.4h-15.1Z"/>
  </g>
  <g>
    <path class="st0" d="M72.5,15.6c.9,5.8,1.2,11.4.7,16.6-.3,3.5-.9,6.9-1.9,10-15.3,1.3-27-2.5-34.3-6.1-5.7-2.8-8.7-5.5-8.7-5.5l-4,2.3s2.4,2.8,6.9,6.6c6.6,5.4,17.8,12.6,33.3,15.7,2.4.5,4.8.8,7.4,1.1,5.4-4.9,9.9-10.5,13.5-16.6,6.7-11.3,10.3-24.3,10.3-37.4l-23.2,13.4Z"/>
    <path class="st0" d="M22.5,32.7c.3-3.5.9-6.9,1.9-10,15.3-1.3,27,2.5,34.3,6.1,5.7,2.8,8.7,5.5,8.7,5.5l4-2.3s-2.4-2.8-6.9-6.6c-6.6-5.4-17.8-12.6-33.3-15.7-2.4-.5-4.8-.8-7.4-1.1-5.4,4.9-9.9,10.5-13.5,16.6C3.6,36.7,0,49.6,0,62.8l23.3-13.4c-1-5.8-1.2-11.4-.7-16.6Z"/>
  </g>
</svg>