<svg width="420" height="65" viewBox="0 0 420 65" fill="none" xmlns="http://www.w3.org/2000/svg">
<g clip-path="url(#clip0_11_2)">
<path d="M162.528 58.644H155.856L130.5 19.824V58.644H123.828V8.28003H130.5L155.928 47.268V8.28003H162.54V58.656L162.528 58.644Z" fill="white"/>
<path d="M171.624 39.588C171.624 35.916 172.344 32.628 173.784 29.688C175.224 26.76 177.228 24.504 179.808 22.908C182.376 21.312 185.316 20.52 188.616 20.52C193.716 20.52 197.832 22.284 200.988 25.812C204.132 29.34 205.716 34.032 205.716 39.888V40.332C205.716 43.98 205.02 47.244 203.628 50.136C202.236 53.028 200.232 55.284 197.64 56.904C195.048 58.524 192.06 59.328 188.7 59.328C183.624 59.328 179.52 57.564 176.364 54.036C173.22 50.508 171.636 45.84 171.636 40.02V39.576L171.624 39.588ZM178.068 40.344C178.068 44.496 179.028 47.832 180.96 50.34C182.88 52.86 185.46 54.108 188.688 54.108C191.916 54.108 194.52 52.836 196.44 50.28C198.36 47.736 199.308 44.16 199.308 39.576C199.308 35.472 198.336 32.148 196.38 29.592C194.436 27.048 191.844 25.764 188.616 25.764C185.388 25.764 182.904 27.024 180.972 29.532C179.04 32.052 178.068 35.64 178.068 40.332V40.344Z" fill="white"/>
<path d="M212.172 39.6241C212.172 33.8761 213.528 29.2681 216.252 25.7641C218.976 22.2721 222.54 20.5201 226.944 20.5201C231.348 20.5201 234.792 22.0201 237.36 25.0201V5.50806H243.756V58.6441H237.876L237.564 54.6361C235.008 57.7681 231.444 59.3401 226.872 59.3401C222.3 59.3401 219 57.5641 216.264 54.0121C213.528 50.4601 212.16 45.8281 212.16 40.1041V39.6241H212.172ZM218.58 40.3441C218.58 44.5921 219.456 47.9041 221.208 50.3041C222.96 52.7041 225.384 53.9041 228.468 53.9041C232.524 53.9041 235.488 52.0801 237.36 48.4321V31.2361C235.44 27.7081 232.5 25.9441 228.54 25.9441C225.408 25.9441 222.96 27.1561 221.208 29.5801C219.456 32.0041 218.58 35.5921 218.58 40.3441Z" fill="white"/>
<path d="M269.232 59.34C264.156 59.34 260.028 57.672 256.848 54.336C253.668 51 252.072 46.548 252.072 40.968V39.792C252.072 36.084 252.78 32.76 254.196 29.844C255.612 26.928 257.604 24.648 260.148 22.992C262.692 21.336 265.464 20.52 268.428 20.52C273.3 20.52 277.08 22.128 279.78 25.332C282.48 28.536 283.824 33.132 283.824 39.096V41.76H258.468C258.564 45.456 259.644 48.432 261.708 50.7C263.772 52.968 266.4 54.108 269.58 54.108C271.836 54.108 273.756 53.652 275.328 52.728C276.9 51.804 278.268 50.58 279.444 49.056L283.356 52.104C280.224 56.928 275.52 59.34 269.244 59.34H269.232ZM268.428 25.776C265.848 25.776 263.676 26.712 261.924 28.596C260.172 30.48 259.092 33.108 258.672 36.504H277.428V36.024C277.248 32.772 276.372 30.252 274.8 28.464C273.228 26.676 271.104 25.788 268.44 25.788L268.428 25.776Z" fill="white"/>
<path d="M329.424 52.0441C327.72 54.4921 325.332 56.3161 322.284 57.5281C319.236 58.7401 315.672 59.3401 311.616 59.3401C307.56 59.3401 303.864 58.3801 300.684 56.4481C297.504 54.5161 295.044 51.7801 293.292 48.2281C291.54 44.6761 290.652 40.5601 290.616 35.8801V31.4881C290.616 23.9041 292.392 18.0241 295.932 13.8481C299.472 9.67211 304.452 7.58411 310.86 7.58411C316.116 7.58411 320.352 8.92811 323.556 11.6161C326.76 14.3041 328.728 18.1201 329.436 23.0521H322.788C321.54 16.3681 317.58 13.0201 310.884 13.0201C306.432 13.0201 303.06 14.5801 300.768 17.7121C298.476 20.8441 297.312 25.3681 297.288 31.3081V35.4241C297.288 41.0761 298.584 45.5761 301.164 48.9121C303.744 52.2481 307.236 53.9161 311.652 53.9161C314.148 53.9161 316.32 53.6401 318.192 53.0881C320.064 52.5361 321.6 51.6001 322.824 50.2921V39.0001H311.16V33.5641H329.424V52.0441Z" fill="url(#paint0_linear_11_2)"/>
<path d="M347.136 38.928V58.644H340.488V8.28003H359.064C364.572 8.28003 368.892 9.68403 372.024 12.504C375.144 15.312 376.716 19.044 376.716 23.676C376.716 28.56 375.192 32.328 372.132 34.968C369.072 37.608 364.704 38.928 359.004 38.928H347.136ZM347.136 33.492H359.076C362.628 33.492 365.352 32.652 367.236 30.984C369.12 29.316 370.068 26.892 370.068 23.724C370.068 20.556 369.12 18.312 367.236 16.512C365.352 14.712 362.748 13.776 359.448 13.704H347.136V33.492Z" fill="url(#paint1_linear_11_2)"/>
<path d="M420 13.7041H403.812V58.6441H397.2V13.7041H381.048V8.26807H420V13.7041Z" fill="url(#paint2_linear_11_2)"/>
<path d="M72.3121 33.252L74.9161 31.776L76.4881 32.028L72.2041 34.464L72.3121 33.252Z" fill="white"/>
<path d="M62.856 28.548C54.996 24.672 42.468 20.544 26.112 21.984L25.356 21.06L26.028 21C28.272 20.796 30.528 20.7 32.748 20.7C46.356 20.7 56.88 24.4799 63.312 27.6599C68.1 30.0359 71.148 32.3039 72.324 33.2639L72.216 34.4759C72.216 34.4759 68.988 31.5959 62.868 28.5599L62.856 28.548Z" fill="white"/>
<path d="M25.3438 21.048L26.0998 21.972C25.1038 25.308 24.4558 28.884 24.1078 32.664C23.6158 38.28 23.8078 44.304 24.8998 50.472L23.7958 49.956C22.8358 44.172 22.5958 38.34 23.1118 32.58C23.4718 28.644 24.1558 24.984 25.1398 21.696L25.3318 21.048H25.3438Z" fill="white"/>
<path d="M25.4641 6.96C28.2001 7.26 30.8401 7.656 33.3721 8.148C49.9801 11.484 62.0161 19.188 69.0721 24.96C73.9441 28.992 76.4761 32.016 76.4761 32.016L74.9161 31.764C73.8241 30.588 71.6281 28.368 68.4361 25.728C61.3801 19.968 49.5481 12.408 33.1681 9.12C30.8041 8.652 28.3321 8.28 25.7881 7.992L25.4521 6.948L25.4641 6.96Z" fill="white"/>
<path d="M74.916 31.776L72.312 33.252C71.124 32.304 68.088 30.024 63.3 27.648C56.868 24.468 46.344 20.688 32.736 20.688C30.528 20.688 28.26 20.784 26.016 20.988L25.344 21.048L25.152 21.696C24.168 24.984 23.496 28.644 23.124 32.58C22.608 38.34 22.848 44.172 23.808 49.956L1.02002 63.108C1.32002 49.848 5.05202 36.792 11.856 25.272C15.696 18.828 20.388 13.008 25.812 8.00403C28.356 8.29203 30.828 8.67603 33.192 9.13203C49.56 12.42 61.404 19.968 68.46 25.74C71.652 28.38 73.848 30.6 74.94 31.776H74.916Z" fill="url(#paint3_radial_11_2)"/>
<path d="M32.736 20.688C46.344 20.688 56.868 24.468 63.3 27.648C68.088 30.024 71.136 32.292 72.312 33.252L74.916 31.776C73.824 30.6 71.628 28.38 68.436 25.74C61.38 19.98 49.548 12.42 33.168 9.13203C30.804 8.66403 28.332 8.29203 25.788 8.00403L25.332 21.048L26.004 20.988C28.248 20.784 30.504 20.688 32.724 20.688H32.736Z" fill="url(#paint4_radial_11_2)"/>
<path d="M11.844 25.2723C15.684 18.8283 20.376 13.0083 25.8 8.00433L25.464 6.96033C19.692 12.2283 14.868 18.2523 10.992 24.7683C3.828 36.9003 0 50.7723 0 64.8483L1.02 63.1083C1.32 49.8483 5.052 36.7923 11.856 25.2723H11.844Z" fill="white"/>
<path d="M23.82 49.9561L1.02 63.1081L0 64.8481L24.912 50.4721L23.82 49.9561Z" fill="white"/>
<path d="M29.9638 31.596L27.3598 33.072L25.7998 32.82L30.0718 30.384L29.9638 31.596Z" fill="white"/>
<path d="M39.4201 36.2999C47.2801 40.1759 59.8081 44.304 76.1641 42.864L76.9201 43.788L76.2481 43.848C74.0041 44.052 71.7481 44.148 69.5281 44.148C55.9201 44.148 45.3962 40.3679 38.9642 37.1879C34.1762 34.8119 31.1281 32.5439 29.9521 31.5839L30.0601 30.3719C30.0601 30.3719 33.2881 33.2519 39.4081 36.2879L39.4201 36.2999Z" fill="white"/>
<path d="M76.9318 43.8L76.1758 42.876C77.1718 39.54 77.8198 35.964 78.1678 32.184C78.6598 26.568 78.4678 20.544 77.3758 14.376L78.4798 14.892C79.4398 20.676 79.6798 26.508 79.1638 32.268C78.8038 36.204 78.1198 39.864 77.1358 43.152L76.9438 43.8H76.9318Z" fill="white"/>
<path d="M76.824 57.888C74.088 57.588 71.448 57.192 68.916 56.7C52.308 53.364 40.272 45.66 33.216 39.888C28.344 35.856 25.812 32.832 25.812 32.832L27.372 33.084C28.464 34.26 30.66 36.48 33.852 39.12C40.908 44.88 52.74 52.44 69.12 55.728C71.484 56.196 73.956 56.568 76.5 56.856L76.836 57.9L76.824 57.888Z" fill="white"/>
<path d="M27.3601 33.072L29.9641 31.596C31.1521 32.544 34.1881 34.824 38.9761 37.2C45.4081 40.38 55.9321 44.16 69.5401 44.16C71.7481 44.16 74.0161 44.064 76.2601 43.86L76.9321 43.8L77.1241 43.152C78.1081 39.864 78.7801 36.204 79.1521 32.268C79.6681 26.508 79.4281 20.676 78.4681 14.892L101.268 1.73999C100.968 15 97.2361 28.056 90.4321 39.576C86.5921 46.02 81.9001 51.84 76.4761 56.844C73.9321 56.556 71.4601 56.172 69.0961 55.716C52.7281 52.428 40.8841 44.88 33.8281 39.108C30.6361 36.468 28.4401 34.248 27.3481 33.072H27.3601Z" fill="url(#paint5_radial_11_2)"/>
<path d="M69.5399 44.1599C55.9319 44.1599 45.4079 40.3799 38.9759 37.1999C34.1879 34.8239 31.1399 32.5559 29.9639 31.5959L27.3599 33.0719C28.4519 34.2479 30.6479 36.4679 33.8399 39.1079C40.8959 44.8679 52.7279 52.4279 69.1079 55.7159C71.4719 56.1839 73.9439 56.5559 76.4879 56.8439L76.9439 43.7999L76.2719 43.8599C74.0279 44.0639 71.7719 44.1599 69.5519 44.1599H69.5399Z" fill="url(#paint6_radial_11_2)"/>
<path d="M90.4321 39.576C86.5921 46.02 81.9001 51.84 76.4761 56.844L76.8121 57.888C82.5841 52.62 87.4081 46.596 91.2841 40.08C98.4481 27.948 102.276 14.076 102.276 0L101.256 1.74C100.956 15 97.2241 28.056 90.4201 39.576H90.4321Z" fill="white"/>
<path d="M78.4678 14.892L101.268 1.74L102.288 0L77.3638 14.376L78.4678 14.892Z" fill="white"/>
</g>
<defs>
<linearGradient id="paint0_linear_11_2" x1="310.02" y1="8.52011" x2="310.02" y2="57.5641" gradientUnits="userSpaceOnUse">
<stop stop-color="white"/>
<stop offset="1" stop-color="white"/>
</linearGradient>
<linearGradient id="paint1_linear_11_2" x1="358.608" y1="8.52003" x2="358.608" y2="57.564" gradientUnits="userSpaceOnUse">
<stop stop-color="white"/>
<stop offset="1" stop-color="white"/>
</linearGradient>
<linearGradient id="paint2_linear_11_2" x1="400.524" y1="8.52007" x2="400.524" y2="57.5641" gradientUnits="userSpaceOnUse">
<stop stop-color="white"/>
<stop offset="1" stop-color="white"/>
</linearGradient>
<radialGradient id="paint3_radial_11_2" cx="0" cy="0" r="1" gradientUnits="userSpaceOnUse" gradientTransform="translate(25.812 7.95603) scale(60.696 60.696)">
<stop stop-color="white"/>
<stop offset="1" stop-color="white"/>
</radialGradient>
<radialGradient id="paint4_radial_11_2" cx="0" cy="0" r="1" gradientUnits="userSpaceOnUse" gradientTransform="translate(33.348 8.88003) scale(42.012 42.012)">
<stop stop-color="white"/>
<stop offset="1" stop-color="white"/>
</radialGradient>
<radialGradient id="paint5_radial_11_2" cx="0" cy="0" r="1" gradientUnits="userSpaceOnUse" gradientTransform="translate(76.4641 56.892) rotate(-180) scale(60.696 60.696)">
<stop stop-color="white"/>
<stop offset="1" stop-color="white"/>
</radialGradient>
<radialGradient id="paint6_radial_11_2" cx="0" cy="0" r="1" gradientUnits="userSpaceOnUse" gradientTransform="translate(68.9399 55.9559) rotate(180) scale(42.012 42.012)">
<stop stop-color="white"/>
<stop offset="1" stop-color="white"/>
</radialGradient>
<clipPath id="clip0_11_2">
<rect width="420" height="64.848" fill="white"/>
</clipPath>
</defs>
</svg>
