<svg width="16" height="16" viewBox="0 0 16 16" fill="none" xmlns="http://www.w3.org/2000/svg">
<path fill-rule="evenodd" clip-rule="evenodd" d="M9.58616 1.91324L7.60845 0L5.63074 1.91324L2.90617 1.52786L2.43074 4.23817L0 5.52786L1.20845 8L0 10.4721L2.43074 11.7618L2.90617 14.4721L5.63074 14.0868L7.60845 16L9.58616 14.0868L12.3107 14.4721L12.7862 11.7618L15.2169 10.4721L14.0085 8L15.2169 5.52786L12.7862 4.23817L12.3107 1.52786L9.58616 1.91324ZM7.59258 10.7593L12.2592 6.75926L10.9577 5.24074L6.94179 8.68292L4.25924 6.3836L2.95766 7.90211L6.29099 10.7593L6.94179 11.3171L7.59258 10.7593Z" fill="url(#paint0_linear_2311_234)"/>
<defs>
<linearGradient id="paint0_linear_2311_234" x1="15.2169" y1="-9.53674e-07" x2="-0.762956" y2="15.1978" gradientUnits="userSpaceOnUse">
<stop stop-color="#7EFFB4"/>
<stop offset="1" stop-color="#5C80FF"/>
</linearGradient>
</defs>
</svg>
